 <svg  version="1.0" xmlns="http://www.w3.org/2000/svg"  width="300.000000pt" height="169.000000pt" viewBox="0 0 300.000000 169.000000"  preserveAspectRatio="xMidYMid meet">  <g transform="translate(0.000000,169.000000) scale(0.100000,-0.100000)" fill="#ae06f2" stroke="none"> <path d="M1707 1076 c-82 -30 -147 -107 -147 -174 0 -16 9 -41 21 -56 40 -51 141 -26 183 45 17 28 13 27 -26 -14 -39 -41 -50 -47 -86 -47 -123 0 -102 153 30 221 46 23 120 25 138 4 11 -13 10 -22 -3 -51 -36 -75 -6 -123 55 -87 17 10 34 25 36 33 3 8 -9 2 -27 -13 -37 -31 -44 -32 -60 -13 -10 11 -9 21 3 45 19 36 20 71 3 94 -17 24 -74 30 -120 13z"/> <path d="M504 1029 c-23 -5 -59 -25 -82 -44 -68 -59 -79 -142 -25 -185 31 -24 46 -25 67 -4 19 19 12 34 -15 34 -21 0 -26 -25 -6 -33 7 -3 5 -6 -5 -6 -30 -2 -58 35 -58 77 0 90 91 152 220 151 41 -1 86 -4 98 -8 l24 -6 -21 -19 c-23 -21 -28 -65 -10 -83 9 -9 0 -15 -32 -23 -92 -25 -161 -78 -175 -136 -10 -38 14 -83 57 -104 21 -11 54 -31 75 -45 38 -26 90 -32 129 -15 13 6 5 7 -25 3 -32 -3 -58 0 -85 13 l-40 17 62 8 c34 4 75 15 91 23 68 35 116 110 104 159 -2 10 -18 25 -35 34 -88 45 -256 -67 -245 -162 4 -39 -9 -46 -35 -17 -29 31 -22 96 14 136 41 48 124 86 191 88 49 1 50 2 11 5 -50 5 -62 27 -39 71 20 39 32 43 102 26 108 -25 163 -12 114 28 -17 14 -38 18 -89 17 -36 0 -74 -4 -85 -8 -10 -4 -46 -1 -80 6 -70 14 -113 15 -172 2z m428 -27 c20 -20 -19 -26 -94 -12 -49 9 -66 15 -57 22 19 12 136 5 151 -10z m-104 -184 c23 -23 14 -74 -20 -109 -69 -68 -208 -105 -223 -59 -22 70 90 180 185 180 25 0 51 -5 58 -12z"/> <path d="M2060 1011 c-70 -22 -122 -55 -197 -125 -51 -47 -67 -56 -99 -57 l-39 -2 33 -6 34 -6 -74 -71 c-40 -39 -88 -79 -106 -88 -85 -44 -195 -22 -199 39 -1 17 0 24 3 18 8 -17 31 -16 37 1 8 21 -13 37 -35 25 -10 -5 -18 -7 -18 -5 0 3 -11 -6 -25 -19 -13 -14 -31 -25 -40 -25 -28 0 -16 42 23 75 36 32 41 52 9 39 -24 -9 -59 -70 -55 -96 4 -31 35 -34 64 -7 l24 22 0 -25 c0 -40 42 -71 105 -76 76 -6 158 35 256 128 74 70 74 70 132 70 31 0 57 -2 57 -5 0 -15 -95 -147 -112 -156 -11 -6 -17 -13 -14 -16 9 -10 75 37 104 75 16 20 51 75 76 122 77 139 135 187 213 176 25 -3 43 -2 43 4 0 17 -141 10 -200 -9z m15 -43 c-32 -29 -71 -72 -89 -97 l-31 -46 -59 5 -59 5 58 54 c71 64 116 94 176 115 65 23 66 21 4 -36z"/> <path d="M2125 926 c-49 -52 -109 -145 -180 -281 -50 -96 -111 -156 -167 -165 -42 -7 -42 -8 -8 -9 73 -2 161 82 245 234 40 74 61 102 73 100 9 -1 11 0 5 2 -7 3 -13 9 -13 14 0 14 49 90 78 122 24 25 52 36 52 20 0 -17 -41 -70 -82 -106 -33 -30 -36 -34 -10 -17 17 12 32 19 32 15 0 -3 -22 -43 -50 -89 -53 -88 -60 -115 -34 -137 13 -10 20 -10 42 4 15 8 33 26 41 39 11 17 5 14 -21 -11 -36 -33 -63 -35 -50 -3 4 9 23 45 42 80 27 49 40 62 60 63 24 2 24 2 2 6 l-22 4 21 30 20 29 -21 0 c-21 0 -20 2 9 35 37 43 41 75 9 75 -14 0 -41 -20 -73 -54z"/> <path d="M981 779 c-12 -19 -21 -44 -21 -55 0 -43 -71 -107 -93 -85 -7 7 3 33 36 86 40 64 44 75 28 75 -22 0 -78 -84 -87 -130 -5 -22 -1 -31 15 -39 24 -13 44 -5 79 32 15 16 30 23 43 20 10 -3 25 0 33 6 11 9 15 5 19 -18 7 -34 38 -55 68 -46 27 9 84 60 111 99 12 17 -3 6 -33 -25 -61 -64 -96 -81 -115 -55 -18 25 -6 54 46 108 41 43 80 62 80 40 0 -13 -42 -49 -70 -62 -24 -10 -24 -10 5 -5 41 8 80 38 80 61 0 47 -91 16 -160 -55 -21 -23 -47 -41 -57 -41 -23 0 -23 3 8 56 19 32 24 48 16 56 -8 8 -17 1 -31 -23z"/> <path d="M1249 783 l-24 -28 26 23 c54 47 52 21 -6 -74 -38 -62 -42 -74 -26 -74 33 0 102 128 88 164 -9 24 -30 20 -58 -11z"/> <path d="M2259 790 c-47 -25 -89 -75 -89 -106 0 -24 31 -64 50 -64 21 0 65 29 96 62 56 61 59 74 4 17 -61 -63 -94 -79 -117 -56 -13 13 -13 19 2 51 28 58 125 134 125 98 0 -12 -37 -45 -68 -59 l-27 -13 30 5 c40 8 80 38 80 61 0 26 -41 28 -86 4z"/> <path d="M2389 783 l-24 -28 26 23 c54 47 52 21 -6 -74 -38 -62 -42 -74 -26 -74 33 0 102 128 88 164 -9 24 -30 20 -58 -11z"/> <path d="M2484 783 c-41 -45 -45 -103 -6 -103 18 0 62 38 62 55 0 4 -11 -4 -25 -19 -30 -32 -55 -34 -55 -3 0 13 14 33 35 50 35 28 45 47 25 47 -6 0 -22 -12 -36 -27z"/> <path d="M1917 653 c-14 -15 -35 -18 -107 -18 -48 0 -92 -3 -96 -7 -4 -5 34 -8 84 -8 82 0 93 2 119 25 15 13 26 25 23 25 -3 0 -14 -8 -23 -17z"/> </g> </svg> 