<?xml version="1.0" encoding="utf-8"?>
<!-- Generator: Adobe Illustrator 28.6.0, SVG Export Plug-In . SVG Version: 9.03 Build 54939)  -->
<svg version="1.0" xmlns="http://www.w3.org/2000/svg" xmlns:xlink="http://www.w3.org/1999/xlink" x="0px" y="0px"
	 viewBox="0 0 500 500" style="enable-background:new 0 0 500 500;" xml:space="preserve">
<style type="text/css">
	.st0{fill:#FDE0FD;}
	.st1{fill:#B400FF;stroke:#231F20;stroke-width:0.25;stroke-miterlimit:10;}
</style>
<g id="Layer_1">
	<circle class="st0" cx="250" cy="250" r="248.77"/>
</g>
<g id="Layer_2">
	<g>
		<path class="st1" d="M151.66,207.27c0,3.1-2.84,4.65-8.53,4.65c-4.48,0-15.14-2.08-31.96-6.24c-7.86,4.48-11.79,10.12-11.79,16.92
			c0,3.28,1.13,5.55,3.4,6.79c3.28-0.28,5.75-0.42,7.42-0.42c4.81,0,7.21,0.58,7.21,1.73c0,0.74-1.27,1.11-3.82,1.11
			c-3.24,0-6.76-0.46-10.55-1.39c-5.14,0.74-11.11,2.73-17.91,5.96c-17.31,8.27-25.96,19-25.96,32.17c0,8.74,4.71,14.28,14.14,16.64
			c-1.71-2.82-2.57-6.08-2.57-9.78c0-9.11,4.65-17.5,13.95-25.17c9.3-7.67,19.48-11.51,30.54-11.51c5.09,0,9.14,1.25,12.15,3.74
			s4.51,5.85,4.51,10.05c0,9.01-4.95,17.14-14.86,24.37c-9.9,7.24-21.06,10.85-33.46,10.85c-2.5,0-4.84-0.14-7.01-0.42
			c4.45,5.96,11.05,8.94,19.8,8.94c5.42,0,9.84-0.81,13.27-2.43l0.83-0.14c0.28,0.09,0.42,0.28,0.42,0.55
			c0,0.65-1.71,1.33-5.14,2.04c-3.43,0.72-6.55,1.08-9.38,1.08c-9.68,0-17.07-3.49-22.16-10.47c-7.05-1.57-12.57-4.24-16.56-8.01
			c-3.99-3.77-5.98-8.15-5.98-13.14c0-6.7,2.77-12.98,8.32-18.83c5.55-5.85,12.94-10.27,22.19-13.28c5.59-1.85,12-3.19,19.21-4.02
			c-5.13-2.17-7.7-5.62-7.7-10.33c0-6.06,3.74-11.12,11.23-15.18c-10.72-2.59-19.58-3.88-26.56-3.88
			c-13.68,0-25.34,3.42-34.98,10.26c-9.64,6.84-14.46,15.12-14.46,24.82c0,4.35,1.27,8.07,3.81,11.16c2.54,3.1,5.59,4.65,9.15,4.65
			c2.45,0,3.67-0.39,3.67-1.18c0-0.42-0.44-0.55-1.32-0.42c-2.45,0-3.67-1.13-3.67-3.4c0-1.29,0.54-2.4,1.63-3.33
			c1.09-0.92,2.39-1.39,3.92-1.39c2.96,0,4.44,1.43,4.44,4.3c0,1.9-0.84,3.5-2.53,4.82c-1.69,1.32-3.73,1.98-6.14,1.98
			c-4.3,0-7.96-1.93-10.99-5.79c-3.03-3.86-4.54-8.52-4.54-13.97c0-8.18,3.56-15.69,10.68-22.53c8.46-8.14,20.34-12.2,35.64-12.2
			c8.5,0,19.83,1.73,33.97,5.2c6.38-3.1,13.8-4.65,22.26-4.65c6.29,0,11.65,0.84,16.09,2.53
			C149.44,202.82,151.66,204.86,151.66,207.27z M130.65,251.99c0-3.33-1.32-6.08-3.96-8.25c-2.64-2.17-5.97-3.26-10-3.26
			c-9.95,0-19.67,4.13-29.16,12.38c-9.49,8.25-14.23,16.68-14.23,25.27c0,2.5,0.76,5.04,2.29,7.63c2.68,0.51,5.16,0.76,7.43,0.76
			c10.92,0,21.59-3.78,32-11.34S130.65,259.89,130.65,251.99z M150.21,207.13c0-1.8-1.91-3.4-5.72-4.78s-8.19-2.08-13.14-2.08
			c-6.79,0-12.99,1.48-18.58,4.44c12.25,3.98,22.56,5.96,30.92,5.96C148.03,210.66,150.21,209.48,150.21,207.13z"/>
		<path class="st1" d="M175.48,263.05c0,0.56-1.46,2.34-4.38,5.36c-4.03,4.22-7.55,6.33-10.56,6.33c-2.04,0-3.73-1.11-5.07-3.33
			c-4.11,5.69-7.47,9.63-10.05,11.82c-2.59,2.2-5.2,3.29-7.83,3.29c-2.36,0-4.35-0.82-5.96-2.46c-1.62-1.64-2.43-3.62-2.43-5.93
			c0-2.73,1.55-6.7,4.65-11.93l10.96-18.37c2.26,0.23,3.79,0.35,4.58,0.35c1.71,0,3.07-0.11,4.09-0.35l-14.49,23.44
			c-3.19,5.27-4.78,8.92-4.78,10.96c0,2.17,1.22,3.26,3.67,3.26c2.26,0,4.59-1.04,6.97-3.12c2.38-2.08,5.79-6.01,10.23-11.79
			c-0.42-1.39-0.62-2.61-0.62-3.67c0-4.21,1.29-8.53,3.88-12.97c2.59-4.44,5.08-6.66,7.49-6.66c1.15,0,1.73,0.67,1.73,2.01
			c0,3.47-3.84,10.61-11.51,21.43c0.97,2.08,2.48,3.12,4.52,3.12c3.52,0,7.8-3.13,12.85-9.39c0.93-1.11,1.53-1.67,1.81-1.67
			C175.39,262.77,175.48,262.86,175.48,263.05z"/>
		<path class="st1" d="M210.42,263.25c0,0.14-0.42,0.74-1.25,1.8l-2.98,3.74c-9.58,11.82-17.79,17.72-24.64,17.72
			c-3.24,0-5.96-1.17-8.15-3.5c-2.2-2.33-3.3-5.26-3.3-8.77c0-8.32,5.8-15.65,17.4-21.98c6.1-3.33,11.07-4.99,14.91-4.99
			c1.66,0,3.09,0.5,4.26,1.49c1.18,0.99,1.77,2.21,1.77,3.64c0,3.33-2.17,6.16-6.52,8.49c-4.35,2.33-11.6,4.52-21.77,6.55
			c-3.14,4.76-4.71,8.74-4.71,11.93c0,3.98,2.15,5.96,6.45,5.96c7.31,0,16.26-7.13,26.86-21.39c0.55-0.74,1.02-1.11,1.39-1.11
			C210.33,262.89,210.42,263.02,210.42,263.25z M204.57,250.39c0-1.48-0.81-2.22-2.43-2.22c-2.45,0-5.67,1.7-9.67,5.1
			c-4,3.4-7.92,7.8-11.75,13.21c6.66-1.71,12.3-4.13,16.92-7.25C202.25,256.11,204.57,253.17,204.57,250.39z"/>
		<path class="st1" d="M249.95,263.19c0,0.37-1.39,2.06-4.17,5.08c-3.52,3.9-6.83,5.84-9.93,5.84c-3.52,0-5.28-2.03-5.28-6.1
			c0-1.29,0.28-2.94,0.83-4.92c-2.91,2.54-5.28,5.06-7.11,7.56c-1.83,2.5-4.98,7.58-9.46,15.25c-2.45-0.19-3.88-0.28-4.3-0.28
			c-0.19,0-1.59,0.09-4.23,0.28l11.37-18.44c5.69-9.25,8.53-14.98,8.53-17.2c0-1.29-0.53-1.94-1.6-1.94c-2.59,0-7.3,4.98-14.1,14.94
			c-0.42,0.65-0.79,0.97-1.11,0.97c-0.19-0.04-0.28-0.18-0.28-0.42c0.05-0.23,0.14-0.42,0.28-0.56l1.25-1.74
			c7.13-9.5,11.97-14.24,14.52-14.24c3.7,0,5.56,2.38,5.56,7.14c0,3.56-1.9,8.27-5.69,14.14c2.4-2.77,4.69-5.04,6.86-6.79
			c1.76-4.11,3.94-7.56,6.55-10.33c2.61-2.77,4.96-4.16,7.04-4.16c1.43,0,2.15,0.62,2.15,1.87c0,2.22-3.21,5.39-9.64,9.5
			c-1.02,0.65-2.54,1.59-4.58,2.84l-0.83,0.69c-0.65,2.13-0.97,3.88-0.97,5.27c0,3.88,1.46,5.82,4.38,5.82
			c3.61,0,7.55-2.99,11.81-8.97c0.93-1.02,1.5-1.53,1.74-1.53C249.81,262.77,249.95,262.91,249.95,263.19z"/>
		<path class="st1" d="M435.04,201.86c0,0.83-0.49,1.25-1.46,1.25c-0.42,0-1.96-0.28-4.64-0.83c-4.95-1.02-9.06-1.53-12.34-1.53
			c-7.44,2.27-14.02,6.66-19.73,13.17s-12.21,17.08-19.52,31.69c-11.19,22.42-25.52,35.66-42.99,39.73
			c3.65,0.55,6.82,0.83,9.51,0.83c8.51,0,15.66-2.73,21.44-8.19c5.6-5.28,10.25-10.88,13.95-16.8c0.42-0.65,0.74-0.97,0.97-0.97
			c0.28,0,0.44,0.09,0.48,0.28c0,0.69-2.66,4.28-7.98,10.76c-4.95,6.06-9.46,10.24-13.53,12.53s-9.04,3.44-14.91,3.44
			c-3.38,0-7.49-0.49-12.35-1.46c-2.96,0.97-6.36,1.46-10.2,1.46c-2.68,0-4.02-0.49-4.02-1.46c0-1.11,1.8-1.66,5.41-1.66
			c2.54,0,5.48,0.23,8.81,0.69c7.17-1.71,12.58-4.53,16.26-8.46c3.67-3.93,10.76-14.56,21.25-31.9h-26.7
			c-11.33,11.93-20.08,20.41-26.28,25.45c-14.47,11.74-28.1,17.61-40.91,17.61c-7.3,0-13.51-1.71-18.62-5.13
			c-5.11-3.42-7.66-7.58-7.66-12.48c0-2.54,0.77-4.71,2.32-6.52c1.55-1.8,3.43-2.7,5.65-2.7c3,0,4.51,1.46,4.51,4.37
			c0,1.53-0.52,2.83-1.55,3.92c-1.03,1.09-2.24,1.63-3.62,1.63c-2.16,0-3.24-1.04-3.24-3.12l0.14-1.39
			c0.09-0.18,0.14-0.44,0.14-0.76c0-0.46-0.21-0.69-0.62-0.69c-0.46,0-0.92,0.58-1.38,1.73c-0.46,1.16-0.69,2.33-0.69,3.54
			c0,4.53,2.38,8.35,7.14,11.47c4.76,3.12,10.6,4.68,17.53,4.68c9.93,0,20.85-4.88,32.77-14.63c2.73-2.17,5.75-5.04,9.08-8.6
			c6.6-6.93,11.87-12.34,15.79-16.23l2.08-2.15h-13.45l0.83-1.25c4.44,0,8.99,0.05,13.66,0.14c13.54-15.07,26.68-26.08,39.42-33.04
			c12.73-6.96,26.2-10.48,40.39-10.57c3.28-0.65,6.36-0.97,9.22-0.97C431.83,198.74,435.04,199.78,435.04,201.86z M360.81,214.44
			c0,0.51-0.86,1.74-2.57,3.69c-4.72,5.42-9.19,8.14-13.4,8.14c-2.68,0-4.87-0.94-6.56-2.81s-2.53-4.33-2.53-7.38
			c0-2.59,1.53-6.77,4.58-12.55c1.43-2.68,2.15-4.9,2.15-6.66c0-2.31-1.28-4.29-3.85-5.93c-2.57-1.64-5.7-2.46-9.4-2.46
			c-10.58,0-20.4,4.07-29.43,12.2c-9.04,8.14-13.56,16.94-13.56,26.42c0,4.81,1.51,8.74,4.54,11.79s6.95,4.58,11.76,4.58
			c5.23,0,10.49-1.91,15.79-5.72c5.3-3.81,9.03-8.4,11.21-13.76c0.14-0.46,0.32-0.69,0.55-0.69c0.42,0,0.62,0.23,0.62,0.69
			c0,0.97-0.81,2.69-2.43,5.17c-1.62,2.47-3.28,4.54-5,6.21c-6.24,6.15-13.25,9.22-21.02,9.22c-5.27,0-9.51-1.62-12.7-4.85
			c-3.19-3.23-4.79-7.53-4.79-12.9c0-9.75,4.7-18.79,14.11-27.11c9.41-8.32,19.61-12.48,30.61-12.48c4.85,0,8.66,1.2,11.41,3.61
			c2.75,2.4,4.12,5.71,4.12,9.92c0,3.14-1.11,6.86-3.33,11.16c-1.99,3.93-2.98,6.59-2.98,7.97c0,3.42,2.04,5.13,6.11,5.13
			c4.63,0,9.42-3.43,14.38-10.3c0.42-0.55,0.76-0.83,1.04-0.83C360.63,213.89,360.81,214.07,360.81,214.44z M413.06,201.03
			c-12.06,0.6-23.25,4.07-33.56,10.4c-10.31,6.33-22.19,16.96-35.64,31.89h26.28c5.92-10.31,13.06-19.55,21.42-27.73
			C399.79,207.45,406.96,202.6,413.06,201.03z"/>
		<path class="st1" d="M425.82,213.51c0,4.11-2.91,9.28-8.74,15.5c-5.83,6.22-13.46,12.31-22.89,18.27h11.93l-0.62,1.04h-12.06
			l-5.69,11.02c-6.98,13.64-12.95,23.91-17.9,30.82c-4.95,6.91-10.66,13.07-17.13,18.48c-8.92,7.4-17.22,11.09-24.9,11.09
			c-3.42,0-5.13-0.5-5.13-1.49c0-0.46,0.25-0.69,0.76-0.69c0.37,0,0.65,0.04,0.83,0.14c1.67,0.48,3.24,0.73,4.72,0.73
			c6.24,0,12.53-2.8,18.87-8.39c3.88-3.42,7.28-7.44,10.2-12.06c2.41-3.7,8.09-13.77,17.06-30.23l10.68-19.41h-7.42l0.55-1.04h7.56
			c5.92-10.03,12.46-18.71,19.63-26.04c7.17-7.33,12.69-10.99,16.58-10.99C424.78,210.25,425.82,211.33,425.82,213.51z
			 M424.98,213.37c0-1.53-0.76-2.29-2.29-2.29c-3.51,0-8.3,4.02-14.36,12.06c-3,4.07-7.54,11.65-13.59,22.74
			c7.58-5.27,14.52-11.28,20.81-18.03C421.84,221.11,424.98,216.28,424.98,213.37z"/>
		<path class="st1" d="M423.25,247.27l-0.55,1.04h-9.08l-15.46,26.42c-1.9,3.19-2.84,5.73-2.84,7.63c0,2.08,1.09,3.12,3.26,3.12
			c4.21,0,11.32-7.34,21.32-22.01c0.32-0.46,0.6-0.69,0.83-0.69c0.28,0,0.42,0.14,0.42,0.42c-0.05,0.14-0.28,0.51-0.69,1.11
			l-2.99,4.1c-8.7,12.08-15.25,18.12-19.64,18.12c-2.18,0-3.99-0.79-5.45-2.36c-1.46-1.57-2.19-3.54-2.19-5.89
			c0-2.77,1.22-6.24,3.67-10.4l11.65-19.55h-7.07l0.69-1.04h6.93l8.11-13.45c1.39,0.37,2.7,0.55,3.95,0.55
			c1.29,0,2.63-0.18,4.02-0.55l-7.97,13.45H423.25z"/>
		<path class="st1" d="M456.08,263.25c0,0.14-0.42,0.74-1.25,1.8l-2.98,3.74c-9.58,11.82-17.79,17.72-24.64,17.72
			c-3.24,0-5.96-1.17-8.15-3.5c-2.2-2.33-3.3-5.26-3.3-8.77c0-8.32,5.8-15.65,17.4-21.98c6.1-3.33,11.07-4.99,14.91-4.99
			c1.66,0,3.08,0.5,4.26,1.49c1.18,0.99,1.77,2.21,1.77,3.64c0,3.33-2.17,6.16-6.52,8.49c-4.35,2.33-11.6,4.52-21.77,6.55
			c-3.14,4.76-4.71,8.74-4.71,11.93c0,3.98,2.15,5.96,6.46,5.96c7.31,0,16.26-7.13,26.86-21.39c0.55-0.74,1.02-1.11,1.39-1.11
			C455.99,262.89,456.08,263.02,456.08,263.25z M450.22,250.39c0-1.48-0.81-2.22-2.43-2.22c-2.45,0-5.67,1.7-9.67,5.1
			s-7.92,7.8-11.75,13.21c6.66-1.71,12.29-4.13,16.92-7.25C447.91,256.11,450.22,253.17,450.22,250.39z"/>
		<path class="st1" d="M495.6,263.19c0,0.37-1.39,2.06-4.17,5.08c-3.52,3.9-6.83,5.84-9.93,5.84c-3.52,0-5.28-2.03-5.28-6.1
			c0-1.29,0.28-2.94,0.83-4.92c-2.91,2.54-5.28,5.06-7.11,7.56c-1.83,2.5-4.98,7.58-9.46,15.25c-2.45-0.19-3.88-0.28-4.3-0.28
			c-0.19,0-1.59,0.09-4.23,0.28l11.37-18.44c5.69-9.25,8.53-14.98,8.53-17.2c0-1.29-0.53-1.94-1.6-1.94c-2.59,0-7.3,4.98-14.1,14.94
			c-0.42,0.65-0.79,0.97-1.11,0.97c-0.18-0.04-0.28-0.18-0.28-0.42c0.05-0.23,0.14-0.42,0.28-0.56l1.25-1.74
			c7.13-9.5,11.97-14.24,14.51-14.24c3.7,0,5.56,2.38,5.56,7.14c0,3.56-1.9,8.27-5.69,14.14c2.4-2.77,4.69-5.04,6.86-6.79
			c1.76-4.11,3.94-7.56,6.55-10.33c2.61-2.77,4.96-4.16,7.04-4.16c1.43,0,2.15,0.62,2.15,1.87c0,2.22-3.21,5.39-9.64,9.5
			c-1.02,0.65-2.54,1.59-4.58,2.84l-0.83,0.69c-0.65,2.13-0.97,3.88-0.97,5.27c0,3.88,1.46,5.82,4.38,5.82
			c3.61,0,7.55-2.99,11.81-8.97c0.93-1.02,1.5-1.53,1.74-1.53C495.46,262.77,495.6,262.91,495.6,263.19z"/>
	</g>
	<g>
	</g>
	<g>
	</g>
	<g>
	</g>
	<g>
	</g>
	<g>
	</g>
	<g>
	</g>
</g>
</svg>
