<?xml version="1.0" encoding="utf-8"?>
<!-- Generator: Adobe Illustrator 28.6.0, SVG Export Plug-In . SVG Version: 9.03 Build 54939)  -->
<svg version="1.0" xmlns="http://www.w3.org/2000/svg" xmlns:xlink="http://www.w3.org/1999/xlink" x="0px" y="0px"
	 viewBox="0 0 500 500" style="enable-background:new 0 0 500 500;" xml:space="preserve">
<style type="text/css">
	.st0{fill:#FDE0FD;}
	.st1{fill:#B400FF;stroke:#231F20;stroke-width:0.25;stroke-miterlimit:10;}
</style>
<g id="Layer_1">
	<circle class="st0" cx="250" cy="250" r="248.77"/>
</g>
<g id="Layer_2">
	<g>
		<path class="st1" d="M229.87,190c0,4.58-4.2,6.87-12.61,6.87c-6.63,0-22.39-3.08-47.27-9.23c-11.62,6.63-17.43,14.97-17.43,25.02
			c0,4.85,1.67,8.2,5.02,10.05c4.85-0.41,8.51-0.62,10.97-0.62c7.11,0,10.66,0.86,10.66,2.56c0,1.09-1.88,1.64-5.65,1.64
			c-4.79,0-9.99-0.68-15.6-2.05c-7.6,1.09-16.43,4.03-26.49,8.82c-25.6,12.24-38.4,28.1-38.4,47.58c0,12.92,6.97,21.12,20.92,24.61
			c-2.53-4.17-3.79-8.99-3.79-14.46c0-13.47,6.88-25.87,20.63-37.22c13.76-11.35,28.81-17.02,45.17-17.02
			c7.53,0,13.52,1.85,17.96,5.54c4.45,3.69,6.67,8.65,6.67,14.87c0,13.33-7.32,25.34-21.97,36.04
			c-14.65,10.7-31.14,16.05-49.49,16.05c-3.7,0-7.15-0.21-10.37-0.62c6.58,8.82,16.34,13.23,29.28,13.23
			c8.01,0,14.56-1.2,19.62-3.59l1.23-0.21c0.41,0.14,0.62,0.41,0.62,0.82c0,0.96-2.53,1.96-7.6,3.03
			c-5.07,1.06-9.69,1.59-13.87,1.59c-14.32,0-25.24-5.16-32.77-15.48c-10.43-2.32-18.59-6.27-24.48-11.84
			c-5.9-5.57-8.84-12.05-8.84-19.43c0-9.91,4.1-19.19,12.3-27.84c8.2-8.65,19.14-15.19,32.81-19.64c8.27-2.73,17.74-4.72,28.4-5.95
			c-7.59-3.21-11.38-8.31-11.38-15.28c0-8.95,5.54-16.44,16.61-22.46c-15.86-3.83-28.95-5.74-39.27-5.74
			c-20.24,0-37.48,5.06-51.73,15.18c-14.25,10.12-21.38,22.35-21.38,36.71c0,6.43,1.88,11.93,5.64,16.51
			c3.76,4.58,8.27,6.87,13.54,6.87c3.62,0,5.43-0.58,5.43-1.74c0-0.62-0.65-0.82-1.95-0.62c-3.62,0-5.43-1.67-5.43-5.02
			c0-1.91,0.8-3.55,2.41-4.92c1.61-1.37,3.54-2.05,5.79-2.05c4.37,0,6.56,2.12,6.56,6.36c0,2.8-1.25,5.18-3.74,7.13
			c-2.5,1.95-5.52,2.92-9.07,2.92c-6.36,0-11.78-2.85-16.25-8.56c-4.48-5.71-6.72-12.59-6.72-20.66c0-12.1,5.26-23.21,15.79-33.33
			c12.51-12.03,30.08-18.05,52.71-18.05c12.58,0,29.33,2.56,50.24,7.69c9.43-4.58,20.41-6.87,32.92-6.87
			c9.3,0,17.23,1.25,23.79,3.74C226.59,183.42,229.87,186.45,229.87,190z M198.8,256.14c0-4.92-1.95-8.99-5.85-12.2
			c-3.9-3.21-8.83-4.82-14.78-4.82c-14.71,0-29.09,6.1-43.12,18.3c-14.03,12.2-21.05,24.66-21.05,37.38c0,3.69,1.13,7.45,3.39,11.28
			c3.97,0.75,7.63,1.13,10.98,1.13c16.15,0,31.93-5.59,47.33-16.76S198.8,267.83,198.8,256.14z M227.72,189.79
			c0-2.67-2.82-5.02-8.46-7.08s-12.12-3.08-19.43-3.08c-10.05,0-19.21,2.19-27.48,6.56c18.11,5.88,33.36,8.82,45.73,8.82
			C224.5,195.02,227.72,193.28,227.72,189.79z"/>
		<path class="st1" d="M481.6,182c0,1.23-0.72,1.85-2.15,1.85c-0.62,0-2.91-0.41-6.87-1.23c-7.32-1.5-13.4-2.26-18.25-2.26
			c-11.01,3.35-20.73,9.84-29.17,19.48c-8.44,9.64-18.06,25.26-28.86,46.86c-16.54,33.15-37.73,52.74-63.57,58.75
			c5.4,0.82,10.09,1.23,14.06,1.23c12.59,0,23.16-4.04,31.71-12.12c8.28-7.8,15.15-16.09,20.62-24.85c0.62-0.96,1.09-1.44,1.44-1.44
			c0.41,0,0.65,0.14,0.72,0.41c0,1.03-3.93,6.33-11.8,15.91c-7.32,8.97-13.99,15.15-20.01,18.53s-13.37,5.08-22.06,5.08
			c-4.99,0-11.08-0.72-18.26-2.15c-4.38,1.44-9.4,2.15-15.08,2.15c-3.97,0-5.95-0.72-5.95-2.15c0-1.64,2.67-2.46,8-2.46
			c3.76,0,8.1,0.34,13.02,1.03c10.59-2.53,18.61-6.7,24.04-12.51c5.44-5.81,15.91-21.53,31.43-47.17h-39.48
			c-16.75,17.64-29.7,30.18-38.86,37.63c-21.4,17.36-41.56,26.04-60.5,26.04c-10.8,0-19.98-2.53-27.53-7.59
			c-7.55-5.06-11.33-11.21-11.33-18.46c0-3.76,1.14-6.97,3.44-9.64c2.29-2.67,5.08-4,8.36-4c4.44,0,6.67,2.15,6.67,6.46
			c0,2.26-0.76,4.19-2.29,5.79c-1.53,1.61-3.31,2.41-5.35,2.41c-3.19,0-4.79-1.54-4.79-4.61l0.2-2.05c0.13-0.27,0.2-0.65,0.2-1.13
			c0-0.68-0.31-1.03-0.92-1.03c-0.68,0-1.36,0.86-2.04,2.56c-0.68,1.71-1.02,3.45-1.02,5.23c0,6.7,3.52,12.36,10.55,16.97
			s15.68,6.92,25.92,6.92c14.69,0,30.84-7.21,48.46-21.64c4.03-3.21,8.5-7.45,13.42-12.71c9.77-10.25,17.55-18.25,23.36-23.99
			l3.07-3.18h-19.89l1.23-1.85c6.56,0,13.29,0.07,20.2,0.21c20.03-22.28,39.46-38.57,58.29-48.86
			c18.83-10.29,38.74-15.5,59.73-15.64c4.85-0.96,9.4-1.44,13.64-1.44C476.85,177.39,481.6,178.93,481.6,182z M371.83,200.61
			c0,0.75-1.27,2.57-3.8,5.45c-6.98,8.02-13.59,12.03-19.82,12.03c-3.97,0-7.21-1.38-9.71-4.15c-2.5-2.77-3.75-6.41-3.75-10.92
			c0-3.83,2.26-10.01,6.77-18.56c2.12-3.96,3.18-7.25,3.18-9.84c0-3.42-1.9-6.34-5.69-8.77c-3.79-2.43-8.43-3.64-13.89-3.64
			c-15.66,0-30.16,6.02-43.53,18.05c-13.37,12.03-20.05,25.05-20.05,39.07c0,7.11,2.24,12.92,6.72,17.43s10.28,6.77,17.39,6.77
			c7.73,0,15.51-2.82,23.35-8.46s13.36-12.42,16.58-20.35c0.21-0.68,0.48-1.03,0.82-1.03c0.62,0,0.92,0.34,0.92,1.03
			c0,1.44-1.2,3.98-3.59,7.64c-2.39,3.66-4.86,6.72-7.39,9.18c-9.23,9.09-19.6,13.64-31.09,13.64c-7.8,0-14.06-2.39-18.78-7.18
			c-4.72-4.78-7.08-11.14-7.08-19.07c0-14.42,6.96-27.79,20.87-40.09c13.91-12.3,29-18.46,45.27-18.46c7.18,0,12.8,1.78,16.87,5.33
			c4.07,3.56,6.1,8.44,6.1,14.66c0,4.65-1.64,10.15-4.92,16.51c-2.94,5.81-4.41,9.74-4.41,11.79c0,5.06,3.01,7.59,9.04,7.59
			c6.85,0,13.93-5.07,21.26-15.23c0.62-0.82,1.13-1.23,1.54-1.23C371.56,199.79,371.83,200.07,371.83,200.61z M449.1,180.77
			c-17.84,0.89-34.39,6.02-49.63,15.38c-15.25,9.37-32.81,25.09-52.71,47.17h38.86c8.75-15.24,19.31-28.92,31.68-41.02
			C429.48,190.27,440.07,183.1,449.1,180.77z"/>
	</g>
	<g>
	</g>
	<g>
	</g>
	<g>
	</g>
	<g>
	</g>
	<g>
	</g>
	<g>
	</g>
</g>
</svg>
